# xmcd
#
# Track frame offsets: 
#        150
#        11063
#        21713
#        35995
#        45415
#        58320
#        67769
#        82188
#        93503
#        106435
#        123954
#        133165
#        145230
#        155708
#
# Disc length: 2235 seconds
#
# Revision: 0
# Processed by: cddbd v1.5.2PL0 Copyright (c) Steve Scherf et al.
# Submitted via: ExactAudioCopy v0.95b3
#
DISCID=d008b90e
DTITLE=The Bee Gees  - Bee Gees' 1st - Disc 2
DYEAR=1900
DGENRE=
TTITLE0=Turn of the Century
TTITLE1=One Minute Woman
TTITLE2=Gilbert Green
TTITLE3=New York Mining Disaster 1941
TTITLE4=House of Lords
TTITLE5=Cucumber Castle
TTITLE6=Harry Braff
TTITLE7=I Close My Eyes
TTITLE8=I've Got to Learn
TTITLE9=I Can't See Nobody
TTITLE10=All Around My Clock
TTITLE11=Mr. Wallor's Wailing Wall
TTITLE12=Craise Finton Kirk Royal Academy of Arts
TTITLE13=New York Mining Disaster 1941
EXTD=
EXTT0=
EXTT1=
EXTT2=
EXTT3=
EXTT4=
EXTT5=
EXTT6=
EXTT7=
EXTT8=
EXTT9=
EXTT10=
EXTT11=
EXTT12=
EXTT13=
PLAYORDER=
